<svg width="72" height="24" viewBox="0 0 72 24" fill="none" xmlns="http://www.w3.org/2000/svg">
<g clip-path="url(#clip0_2475_11366)">
<path d="M23.486 12C23.486 18.6283 18.2276 24 11.7441 24C5.26055 24 0 18.6283 0 12C0 5.37175 5.25621 0 11.7441 0C18.2319 0 23.486 5.37396 23.486 12Z" fill="white"/>
<path d="M17.2498 11.1628C15.3828 9.86645 12.9932 10.3939 11.7377 12.344C10.6925 13.9728 9.11174 14.1767 8.50242 14.1767C6.50531 14.1767 5.14139 12.7407 4.7359 11.2559C4.73156 11.2404 4.72722 11.2271 4.72505 11.2138C4.72072 11.1983 4.71855 11.1806 4.71204 11.1628C4.55158 10.5423 4.51255 10.2476 4.51255 9.58944C4.51255 6.04152 8.07741 2.08805 13.2079 2.08805C18.3383 2.08805 21.4716 6.1767 22.2501 8.45038C22.2349 8.40828 22.2219 8.3706 22.2089 8.33071C20.717 3.88307 16.5906 0.6875 11.7333 0.6875C5.62494 0.6875 0.667969 5.749 0.667969 11.9983C0.667969 17.5828 4.60796 22.3606 10.0767 22.3606C14.4352 22.3606 17.3647 19.8653 18.7069 16.4194C19.4442 14.5357 18.9238 12.3241 17.2498 11.1606" fill="#003964"/>
<path d="M22.3145 8.67156C21.6662 6.45328 18.6391 2.08984 13.2051 2.08984C8.07462 2.08984 4.50977 6.04331 4.50977 9.59123C4.50977 10.2494 4.55097 10.5441 4.70926 11.1646C4.64204 10.8921 4.60734 10.6217 4.60734 10.358C4.60734 6.66159 8.22858 4.09982 11.9517 4.09982C16.9933 4.09982 21.0785 8.27489 21.0785 13.425C21.0785 17.4605 18.8039 20.9574 15.5036 22.635C19.7623 21.0616 22.8024 16.8932 22.8024 12.0001C22.8024 10.8411 22.6506 9.81948 22.3167 8.67156" fill="#ED1A3B"/>
<path d="M36.1227 15.1376V16.1061H28.0859V15.1376H31.5563V13.3577H28.7345V8.3125H29.804V9.61016H34.4008V8.3125H35.4779V13.3577H32.6448V15.1376H36.1265H36.1227ZM34.397 12.4083V10.5595H29.8002V12.4083H34.397Z" fill="#575756"/>
<path d="M41.2758 12.8103H40.1873V9.16993H36.9824V8.18998H41.2758V12.8103ZM37.5589 16.5807V13.3538H38.6474V15.6084H44.7234V16.5769H37.5589V16.5807ZM43.4604 7.93352H44.5489V13.5835H43.4604V10.9997H42.0305V10.0389H43.4604V7.92969V7.93352Z" fill="#575756"/>
<path d="M54.0094 12.2651V13.2067H45.9727V12.2651H49.443V11.4918H46.6212V8.03906H47.6908V8.86206H52.2875V8.03906H53.3647V11.4918H50.5315V12.2651H54.0094ZM53.3609 13.9264V16.7743H52.2724V14.8565H46.4088V13.9264H53.3571H53.3609ZM52.2837 9.7731H47.687V10.5731H52.2837V9.7731Z" fill="#575756"/>
<path d="M55.0935 9.44952V8.48106H60.3085V9.44952H58.1125L60.5436 15.2182L59.5841 15.6354L57.7218 11.1223L55.871 15.7043L54.8887 15.2871L57.3312 9.44952H55.0973H55.0935ZM61.5828 7.9375H62.6713V16.7608H61.5828V7.9375Z" fill="#575756"/>
<path d="M63.9609 13.506H71.9977V14.4745H68.5198V16.7482H67.4313V14.4745H63.9609V13.506ZM65.6752 9.19196H70.272V8.07422H71.3492V12.3194H64.6057V8.07422H65.6752V9.19196ZM70.272 10.1413H65.6752V11.3586H70.272V10.1413Z" fill="#575756"/>
</g>
<defs>
<clipPath id="clip0_2475_11366">
<rect width="72" height="24" fill="white"/>
</clipPath>
</defs>
</svg>
