<svg width="32" height="32" viewBox="0 0 32 32" fill="none" xmlns="http://www.w3.org/2000/svg">
<path d="M5.88889 2.8H26.1111C27.8171 2.8 29.2 4.18294 29.2 5.88889V26.1111C29.2 27.8171 27.8171 29.2 26.1111 29.2H5.88889C4.18294 29.2 2.8 27.8171 2.8 26.1111V5.88889C2.8 4.18294 4.18294 2.8 5.88889 2.8Z" stroke="#2D2D2D" stroke-width="1.6" stroke-linecap="round" stroke-linejoin="round"/>
<path d="M16 16C17.6569 16 19 14.6569 19 13C19 11.3431 17.6569 10 16 10C14.3431 10 13 11.3431 13 13C13 14.6569 14.3431 16 16 16Z" stroke="#2D2D2D" stroke-width="1.6" stroke-linecap="round" stroke-linejoin="round"/>
<path d="M10 22C10.281 20.8711 11.0319 19.8562 12.1254 19.1272C13.2189 18.3982 14.5877 18 16 18C17.4123 18 18.7811 18.3982 19.8746 19.1272C20.9681 19.8562 21.719 20.8711 22 22" stroke="#2D2D2D" stroke-width="1.6" stroke-linecap="round" stroke-linejoin="round"/>
</svg>
