<svg width="32" height="32" viewBox="0 0 32 32" fill="none" xmlns="http://www.w3.org/2000/svg">
<rect x="2" y="6.4541" width="28" height="19.0909" rx="4" stroke="#2D2D2D" stroke-width="1.6"/>
<path d="M8.7255 16.7567C9.22757 16.7567 9.63459 16.3496 9.63459 15.8476C9.63459 15.3455 9.22757 14.9385 8.7255 14.9385C8.22342 14.9385 7.81641 15.3455 7.81641 15.8476C7.81641 16.3496 8.22342 16.7567 8.7255 16.7567Z" stroke="#2D2D2D" stroke-width="1.71429" stroke-linecap="round" stroke-linejoin="round"/>
<path d="M14.788 16.7567C15.2901 16.7567 15.6971 16.3496 15.6971 15.8476C15.6971 15.3455 15.2901 14.9385 14.788 14.9385C14.2859 14.9385 13.8789 15.3455 13.8789 15.8476C13.8789 16.3496 14.2859 16.7567 14.788 16.7567Z" stroke="#2D2D2D" stroke-width="1.71429" stroke-linecap="round" stroke-linejoin="round"/>
<path d="M24.1819 18.1211H19.9395" stroke="#2D2D2D" stroke-width="1.6" stroke-linecap="round" stroke-linejoin="round"/>
</svg>
