<svg width="32" height="32" viewBox="0 0 32 32" fill="none" xmlns="http://www.w3.org/2000/svg">
<path d="M12.3621 8.36977C12.3621 5.88003 10.3437 3.86171 7.85388 3.86174C5.36408 3.86177 3.3457 5.88013 3.3457 8.36987C3.3457 10.8596 5.36408 12.8779 7.85388 12.8779C10.3437 12.8778 12.3621 10.8595 12.3621 8.36977Z" stroke="#2D2D2D" stroke-width="1.6" stroke-linecap="round" stroke-linejoin="round"/>
<path d="M28.651 8.37836C28.651 5.88859 26.6327 3.87028 24.1429 3.87034C21.6531 3.87041 19.6348 5.88882 19.6348 8.37859C19.6348 10.8684 21.6531 12.8867 24.1429 12.8866C26.6327 12.8865 28.651 10.8681 28.651 8.37836Z" stroke="#2D2D2D" stroke-width="1.6" stroke-linecap="round" stroke-linejoin="round"/>
<path d="M12.364 23.6276C12.364 21.1378 10.3456 19.1195 7.85583 19.1196C5.36604 19.1196 3.34766 21.1379 3.34766 23.6277C3.34766 26.1174 5.36604 28.1357 7.85583 28.1357C10.3456 28.1357 12.364 26.1173 12.364 23.6276Z" stroke="#2D2D2D" stroke-width="1.6" stroke-linecap="round" stroke-linejoin="round"/>
<path fill-rule="evenodd" clip-rule="evenodd" d="M8.41133 7.5791H19.7047C19.6582 7.83864 19.634 8.10588 19.634 8.37878C19.634 8.65191 19.6583 8.91936 19.7048 9.1791H8.41133C7.9695 9.1791 7.61133 8.82093 7.61133 8.3791C7.61133 7.93727 7.9695 7.5791 8.41133 7.5791ZM21.5717 12.0828C21.1306 11.7761 20.7469 11.3926 20.4399 10.9518L10.9963 20.3952C11.3846 20.7729 11.7051 21.22 11.9377 21.7165L21.5717 12.0828ZM12.2904 22.8264C12.337 23.0862 12.3613 23.3537 12.3613 23.6268C12.3613 23.8997 12.337 24.1669 12.2906 24.4264H24.144C24.5859 24.4264 24.944 24.0683 24.944 23.6264C24.944 23.1846 24.5859 22.8264 24.144 22.8264H12.2904Z" fill="#2D2D2D"/>
<path d="M24.147 28.1383C26.6368 28.1383 28.6551 26.12 28.655 23.6302C28.655 21.1404 26.6366 19.1221 24.1468 19.1221C21.657 19.1221 19.6387 21.1404 19.6388 23.6302C19.6389 26.12 21.6573 28.1383 24.147 28.1383Z" stroke="#2D2D2D" stroke-width="1.6" stroke-linecap="round" stroke-linejoin="round"/>
</svg>
