<svg width="16" height="16" viewBox="0 0 16 16" fill="none" xmlns="http://www.w3.org/2000/svg">
<path fill-rule="evenodd" clip-rule="evenodd" d="M15.1793 4.46631C15.7048 5.53194 16 6.73149 16 8C16 12.4183 12.4183 16 8 16C3.58172 16 0 12.4183 0 8C0 3.58172 3.58172 0 8 0C9.37294 0 10.6651 0.34585 11.7941 0.95518L11.0843 1.93806C10.1585 1.46612 9.11034 1.2 8 1.2C4.24446 1.2 1.2 4.24446 1.2 8C1.2 11.7555 4.24446 14.8 8 14.8C11.7555 14.8 14.8 11.7555 14.8 8C14.8 7.15383 14.6454 6.34376 14.363 5.59648L15.1793 4.46631Z" fill="#2D2D2D"/>
<path d="M4.5 7.73333L7.5 11L14 2" stroke="#1D56BC" stroke-width="1.2" stroke-linecap="round"/>
</svg>
