<svg width="40" height="40" viewBox="0 0 40 40" fill="none" xmlns="http://www.w3.org/2000/svg">
<g id="duotone / trophy">
<path id="tone" opacity="0.15" d="M11.667 6.66699H28.3337V20.0003C28.3337 24.6027 24.6027 28.3337 20.0003 28.3337C15.398 28.3337 11.667 24.6027 11.667 20.0003V6.66699Z" fill="#246BEB"/>
<path id="shape" d="M13.3333 35.0003H26.6667M20 35.0003V28.3337M20 28.3337C15.3976 28.3337 11.6667 24.6027 11.6667 20.0003V6.66699H28.3333V20.0003C28.3333 24.6027 24.6024 28.3337 20 28.3337ZM28.3333 10.0003H30.8333C33.1345 10.0003 35 11.8658 35 14.167C35 16.4682 33.1345 18.3337 30.8333 18.3337H28.3333M11.6667 18.3337H9.16667C6.86548 18.3337 5 16.4682 5 14.167C5 11.8658 6.86548 10.0003 9.16667 10.0003H11.6667" stroke="#246BEB" stroke-width="1.5" stroke-linecap="round" stroke-linejoin="round"/>
</g>
</svg>
