<svg width="32" height="32" viewBox="0 0 32 32" fill="none" xmlns="http://www.w3.org/2000/svg">
<g id="badge_FILL0_wght400_GRAD0_opsz40">
<path id="Vector" d="M4.88822 29.3337C4.28822 29.3337 3.76785 29.1133 3.32712 28.6726C2.88638 28.2318 2.66602 27.7115 2.66602 27.1115V11.5559C2.66602 10.9559 2.88638 10.4355 3.32712 9.99476C3.76785 9.55403 4.28822 9.33366 4.88822 9.33366H12.666V4.88919C12.666 4.28919 12.8864 3.76883 13.3272 3.32809C13.7679 2.88736 14.2913 2.66699 14.8974 2.66699H17.1013C17.7074 2.66699 18.2308 2.88736 18.6716 3.32809C19.1123 3.76883 19.3327 4.28919 19.3327 4.88919V9.33366H27.1105C27.7105 9.33366 28.2309 9.55403 28.6716 9.99476C29.1123 10.4355 29.3327 10.9559 29.3327 11.5559V27.1115C29.3327 27.7115 29.1123 28.2318 28.6716 28.6726C28.2309 29.1133 27.7105 29.3337 27.1105 29.3337H4.88822ZM4.88822 27.1115H27.1105V11.5559H19.3327V12.2226C19.3327 12.8818 19.1123 13.417 18.6716 13.8281C18.2308 14.2392 17.7074 14.4448 17.1013 14.4448H14.8974C14.2913 14.4448 13.7679 14.2392 13.3272 13.8281C12.8864 13.417 12.666 12.8818 12.666 12.2226V11.5559H4.88822V27.1115ZM7.82158 23.8448H15.7993V23.3337C15.7993 22.9411 15.6975 22.5874 15.4938 22.2726C15.2901 21.9577 15.0216 21.7337 14.6882 21.6003C14.066 21.3707 13.5456 21.2133 13.1271 21.1281C12.7086 21.0429 12.2882 21.0003 11.866 21.0003C11.4142 21.0003 10.9531 21.0503 10.4827 21.1503C10.0123 21.2503 9.50304 21.4003 8.95488 21.6003C8.60675 21.7337 8.33083 21.9577 8.12712 22.2726C7.92343 22.5874 7.82158 22.9411 7.82158 23.3337V23.8448ZM18.8438 21.6892H24.3993V19.9114H18.8438V21.6892ZM11.866 19.9114C12.3845 19.9114 12.8253 19.7299 13.1882 19.367C13.5512 19.004 13.7327 18.5633 13.7327 18.0448C13.7327 17.5262 13.5512 17.0855 13.1882 16.7226C12.8253 16.3596 12.3845 16.1781 11.866 16.1781C11.3475 16.1781 10.9068 16.3596 10.5438 16.7226C10.1808 17.0855 9.99935 17.5262 9.99935 18.0448C9.99935 18.5633 10.1808 19.004 10.5438 19.367C10.9068 19.7299 11.3475 19.9114 11.866 19.9114ZM18.8438 17.8448H24.3993V16.067H18.8438V17.8448ZM14.8882 12.2226H17.1104V4.88919H14.8882V12.2226Z" fill="#2D2D2D"/>
</g>
</svg>
