<svg width="32" height="32" viewBox="0 0 32 32" fill="none" xmlns="http://www.w3.org/2000/svg">
<g id="calendar_today_FILL0_wght400_GRAD0_opsz40">
<path id="Vector" d="M6.2222 29.3337C5.6222 29.3337 5.10183 29.1133 4.6611 28.6726C4.22037 28.2318 4 27.7115 4 27.1115V7.11143C4 6.51143 4.22037 5.99106 4.6611 5.55033C5.10183 5.10957 5.6222 4.88919 6.2222 4.88919H8.1111V2.66699H10.4444V4.88919H21.5556V2.66699H23.8889V4.88919H25.7778C26.3778 4.88919 26.8982 5.10957 27.3389 5.55033C27.7796 5.99106 28 6.51143 28 7.11143V27.1115C28 27.7115 27.7796 28.2318 27.3389 28.6726C26.8982 29.1133 26.3778 29.3337 25.7778 29.3337H6.2222ZM6.2222 27.1115H25.7778V13.1114H6.2222V27.1115ZM6.2222 10.8892H25.7778V7.11143H6.2222V10.8892Z" fill="#2D2D2D"/>
</g>
</svg>
