<svg width="40" height="40" viewBox="0 0 40 40" fill="none" xmlns="http://www.w3.org/2000/svg">
<g id="duotone / headphones">
<g id="tone" opacity="0.15">
<path d="M5 23.333H10C11.8409 23.333 13.3333 24.8254 13.3333 26.6663V31.6663C13.3333 33.5073 11.8409 34.9997 10 34.9997H5V23.333Z" fill="#246BEB"/>
<path d="M35 34.9997H30C28.159 34.9997 26.6667 33.5073 26.6667 31.6663V26.6663C26.6667 24.8254 28.159 23.333 30 23.333H35V34.9997Z" fill="#246BEB"/>
</g>
<path id="shape" d="M5 23.3333H10C11.8409 23.3333 13.3333 24.8257 13.3333 26.6667V31.6667C13.3333 33.5076 11.8409 35 10 35H5V23.3333ZM5 23.3333V20C5 11.7157 11.7157 5 20 5C28.2843 5 35 11.7157 35 20V23.3333M35 23.3333H30C28.1591 23.3333 26.6667 24.8257 26.6667 26.6667V31.6667C26.6667 33.5076 28.1591 35 30 35H35V23.3333Z" stroke="#246BEB" stroke-width="1.5" stroke-linecap="round" stroke-linejoin="round"/>
</g>
</svg>
