<svg width="32" height="32" viewBox="0 0 32 32" fill="none" xmlns="http://www.w3.org/2000/svg">
<g id="ecg_heart_FILL0_wght400_GRAD0_opsz40">
<path id="Vector" d="M15.9993 28C15.5993 28 15.216 27.9278 14.8493 27.7833C14.4827 27.6389 14.1549 27.4222 13.866 27.1333L4.93268 18.1667C4.1549 17.3889 3.58268 16.5 3.21602 15.5C2.84935 14.5 2.66602 13.4556 2.66602 12.3667C2.66602 10.0778 3.41046 8.11111 4.89935 6.46667C6.38824 4.82222 8.24379 4 10.466 4C11.5327 4 12.5382 4.21111 13.4827 4.63333C14.4271 5.05556 15.266 5.64444 15.9993 6.4C16.7105 5.64444 17.5382 5.05556 18.4827 4.63333C19.4271 4.21111 20.4327 4 21.4993 4C23.7216 4 25.5827 4.82222 27.0827 6.46667C28.5827 8.11111 29.3327 10.0667 29.3327 12.3333C29.3327 13.4222 29.1438 14.4667 28.766 15.4667C28.3882 16.4667 27.8216 17.3556 27.066 18.1333L18.0993 27.1333C17.8105 27.4222 17.4882 27.6389 17.1327 27.7833C16.7771 27.9278 16.3993 28 15.9993 28ZM17.3391 10.8889C17.5274 10.8889 17.6994 10.937 17.8549 11.0333C18.0105 11.1296 18.1438 11.2518 18.2549 11.4L20.5882 14.8889H26.6134C26.7828 14.4751 26.9099 14.0553 26.9946 13.6294C27.0792 13.2034 27.1216 12.7714 27.1216 12.3333C27.1068 10.6815 26.5664 9.25371 25.5006 8.05C24.4347 6.84629 23.1023 6.24443 21.5035 6.24443C20.7526 6.24443 20.0308 6.39629 19.3382 6.7C18.6456 7.00369 18.0438 7.43331 17.5327 7.98887L16.6327 8.95553C16.5512 9.04442 16.4586 9.11665 16.3549 9.1722C16.2512 9.22776 16.1327 9.25553 15.9993 9.25553C15.866 9.25553 15.7428 9.22861 15.6296 9.17477C15.5165 9.12092 15.4175 9.04785 15.3327 8.95553L14.4327 7.98887C13.9175 7.43605 13.3165 7.0034 12.6296 6.69093C11.9428 6.37845 11.2216 6.2222 10.466 6.2222C8.87237 6.2222 7.54433 6.82732 6.48188 8.03757C5.41944 9.24781 4.88822 10.6797 4.88822 12.3333C4.88822 12.7736 4.92896 13.2077 5.01045 13.6357C5.09194 14.0638 5.21527 14.4815 5.38045 14.8889H11.9993C12.1857 14.8889 12.3626 14.9342 12.5303 15.0247C12.698 15.1152 12.8284 15.2329 12.9216 15.3778L14.3327 17.5111L16.266 11.6667C16.3413 11.4444 16.4778 11.2593 16.6755 11.1111C16.8732 10.963 17.0944 10.8889 17.3391 10.8889ZM17.666 14.4889L15.7105 20.3333C15.6368 20.5556 15.4986 20.7407 15.2959 20.8889C15.0933 21.037 14.8722 21.1111 14.6327 21.1111C14.4401 21.1111 14.266 21.063 14.1104 20.9667C13.9549 20.8704 13.829 20.7482 13.7327 20.6L11.3993 17.1111H7.02155L15.4549 25.5445C15.5438 25.6334 15.6293 25.6945 15.7116 25.7278C15.7938 25.7611 15.8897 25.7778 15.9993 25.7778C16.109 25.7778 16.2049 25.7611 16.2871 25.7278C16.3694 25.6945 16.4549 25.6334 16.5438 25.5445L24.9438 17.1111H19.9993C19.8067 17.1111 19.6327 17.063 19.4771 16.9667C19.3216 16.8704 19.1845 16.7482 19.066 16.6L17.666 14.4889Z" fill="#2D2D2D"/>
</g>
</svg>
