<svg width="32" height="32" viewBox="0 0 32 32" fill="none" xmlns="http://www.w3.org/2000/svg">
<g id="bookmarks_FILL0_wght400_GRAD0_opsz40">
<path id="Vector" d="M4 30.6663V7.99964C4 7.39964 4.22037 6.87927 4.6611 6.43854C5.10183 5.99781 5.6222 5.77744 6.2222 5.77744H21.3334C21.9334 5.77744 22.4574 5.99781 22.9056 6.43854C23.3537 6.87927 23.5778 7.39964 23.5778 7.99964V30.6663L13.7778 26.5108L4 30.6663ZM6.2222 27.2886L13.7778 24.0441L21.3334 27.2886V7.99964H6.2222V27.2886ZM25.7778 27.333V3.55521H7.84443V1.33301H25.7778C26.3778 1.33301 26.8982 1.55337 27.3389 1.99411C27.7796 2.43484 28 2.95521 28 3.55521V27.333H25.7778Z" fill="#2D2D2D"/>
</g>
</svg>
