<svg width="32" height="32" viewBox="0 0 32 32" fill="none" xmlns="http://www.w3.org/2000/svg">
<g id="create_new_folder_FILL0_wght400_GRAD0_opsz40">
<path id="Vector" d="M18.4438 21.333H20.666V18.4441H23.5549V16.2219H20.666V13.333H18.4438V16.2219H15.5549V18.4441H18.4438V21.333ZM4.88822 26.6663C4.28822 26.6663 3.76785 26.4423 3.32712 25.9941C2.88638 25.546 2.66602 25.0293 2.66602 24.4441V7.55521C2.66602 6.97003 2.88638 6.45337 3.32712 6.00524C3.76785 5.55709 4.28822 5.33301 4.88822 5.33301H13.7993L16.0216 7.55521H27.1105C27.6957 7.55521 28.2123 7.77929 28.6604 8.22744C29.1086 8.67557 29.3327 9.19224 29.3327 9.77744V24.4441C29.3327 25.0293 29.1086 25.546 28.6604 25.9941C28.2123 26.4423 27.6957 26.6663 27.1105 26.6663H4.88822ZM4.88822 24.4441H27.1105V9.77744H15.0993L12.8771 7.55521H4.88822V24.4441Z" fill="#2D2D2D"/>
</g>
</svg>
