<svg width="32" height="32" viewBox="0 0 32 32" fill="none" xmlns="http://www.w3.org/2000/svg">
<g id="analytics_FILL0_wght400_GRAD0_opsz40">
<path id="Vector" d="M9.42223 22.7333H11.6444V15.9556H9.42223V22.7333ZM20.3556 22.7333H22.5778V8.95553H20.3556V22.7333ZM14.8889 22.7333H17.1111V18.7778H14.8889V22.7333ZM14.8889 15.9556H17.1111V13.7333H14.8889V15.9556ZM6.2222 28C5.6222 28 5.10183 27.7796 4.6611 27.3389C4.22037 26.8982 4 26.3778 4 25.7778V6.2222C4 5.6222 4.22037 5.10183 4.6611 4.6611C5.10183 4.22037 5.6222 4 6.2222 4H25.7778C26.3778 4 26.8982 4.22037 27.3389 4.6611C27.7796 5.10183 28 5.6222 28 6.2222V25.7778C28 26.3778 27.7796 26.8982 27.3389 27.3389C26.8982 27.7796 26.3778 28 25.7778 28H6.2222ZM6.2222 25.7778H25.7778V6.2222H6.2222V25.7778Z" fill="#2D2D2D"/>
</g>
</svg>
