<svg width="32" height="32" viewBox="0 0 32 32" fill="none" xmlns="http://www.w3.org/2000/svg">
<g id="map_FILL0_wght400_GRAD0_opsz40">
<path id="Vector" d="M20.2667 28L11.7555 25L5.7111 27.3778C5.3111 27.5704 4.92592 27.5463 4.55557 27.3056C4.18519 27.0648 4 26.7185 4 26.2667V7.64443C4 7.35554 4.08333 7.09999 4.25 6.87777C4.41667 6.65554 4.63703 6.48888 4.9111 6.37777L11.7555 4L20.2667 6.97777L26.2889 4.6C26.6889 4.42222 27.0741 4.45 27.4444 4.68333C27.8148 4.91667 28 5.25926 28 5.7111V24.4889C28 24.7481 27.9167 24.9741 27.75 25.1667C27.5833 25.3593 27.3704 25.5037 27.1111 25.6L20.2667 28ZM19.0667 25.2445V8.8222L12.9333 6.73333V23.1556L19.0667 25.2445ZM21.2889 25.2445L25.7778 23.7556V7.1111L21.2889 8.8222V25.2445ZM6.2222 24.8667L10.7111 23.1556V6.73333L6.2222 8.2222V24.8667Z" fill="#2D2D2D"/>
</g>
</svg>
