<svg width="32" height="32" viewBox="0 0 32 32" fill="none" xmlns="http://www.w3.org/2000/svg">
<g id="location_away_FILL0_wght400_GRAD0_opsz40">
<path id="Vector" d="M2.66602 28V12L13.3327 4L21.0549 9.8C20.5735 9.82222 20.1031 9.89816 19.6438 10.0278C19.1845 10.1574 18.7549 10.3333 18.3549 10.5556L13.3327 6.77777L4.88822 13.1111V25.7778H11.1105V28H2.66602ZM13.3327 28V25.4667C13.3327 25 13.4493 24.5611 13.6827 24.15C13.916 23.7389 14.2327 23.4111 14.6327 23.1667C15.6549 22.5667 16.7271 22.1111 17.8493 21.8C18.9716 21.4889 20.1327 21.3333 21.3327 21.3333C22.5327 21.3333 23.6938 21.4889 24.816 21.8C25.9382 22.1111 27.0105 22.5667 28.0327 23.1667C28.4327 23.4111 28.7493 23.7389 28.9827 24.15C29.216 24.5611 29.3327 25 29.3327 25.4667V28H13.3327ZM15.6215 25.7778H27.0438V25.1333C26.1623 24.6296 25.2421 24.2407 24.2832 23.9667C23.3243 23.6926 22.3408 23.5555 21.3327 23.5555C20.3246 23.5555 19.3411 23.6963 18.3821 23.9778C17.4232 24.2593 16.503 24.6519 15.6215 25.1556V25.7778ZM21.3327 20C20.2216 20 19.2771 19.6111 18.4993 18.8333C17.7216 18.0556 17.3327 17.1111 17.3327 16C17.3327 14.8889 17.7216 13.9444 18.4993 13.1667C19.2771 12.3889 20.2216 12 21.3327 12C22.4438 12 23.3882 12.3889 24.166 13.1667C24.9438 13.9444 25.3327 14.8889 25.3327 16C25.3327 17.1111 24.9438 18.0556 24.166 18.8333C23.3882 19.6111 22.4438 20 21.3327 20ZM21.3327 17.7778C21.8364 17.7778 22.2586 17.6074 22.5993 17.2667C22.9401 16.9259 23.1105 16.5037 23.1105 16C23.1105 15.4963 22.9401 15.0741 22.5993 14.7333C22.2586 14.3926 21.8364 14.2222 21.3327 14.2222C20.829 14.2222 20.4067 14.3926 20.066 14.7333C19.7253 15.0741 19.5549 15.4963 19.5549 16C19.5549 16.5037 19.7253 16.9259 20.066 17.2667C20.4067 17.6074 20.829 17.7778 21.3327 17.7778Z" fill="#2D2D2D"/>
</g>
</svg>
