<svg width="20" height="20" viewBox="0 0 20 20" fill="none" xmlns="http://www.w3.org/2000/svg">
<g clip-path="url(#clip0_1601_44937)">
<path d="M20 10C20 15.5235 15.5221 20 10.0009 20C4.47973 20 0 15.5235 0 10C0 4.47645 4.47604 0 10.0009 0C15.5258 0 20 4.4783 20 10Z" fill="white"/>
<path d="M14.6894 9.30367C13.0995 8.22334 11.0646 8.66286 9.9955 10.288C9.10546 11.6453 7.75932 11.8152 7.24044 11.8152C5.53976 11.8152 4.37828 10.6185 4.03298 9.38124C4.02929 9.36831 4.02559 9.35723 4.02375 9.34615C4.02005 9.33322 4.01821 9.31845 4.01267 9.30367C3.87602 8.78659 3.84278 8.54098 3.84278 7.9925C3.84278 5.0359 6.87852 1.74135 11.2475 1.74135C15.6164 1.74135 18.2847 5.14855 18.9476 7.04329C18.9347 7.0082 18.9236 6.9768 18.9125 6.94356C17.6421 3.23719 14.1281 0.574219 9.9918 0.574219C4.79006 0.574219 0.568848 4.79213 0.568848 9.99989C0.568848 14.6536 3.92403 18.6352 8.58104 18.6352C12.2926 18.6352 14.7873 16.5558 15.9303 13.6841C16.5581 12.1144 16.115 10.2714 14.6894 9.30183" fill="#003964"/>
<path d="M19.0029 7.22695C18.4507 5.37838 15.873 1.74219 11.2455 1.74219C6.87655 1.74219 3.84082 5.03674 3.84082 7.99334C3.84082 8.54182 3.8759 8.78743 4.0107 9.30451C3.95346 9.07737 3.92392 8.85207 3.92392 8.63231C3.92392 5.55198 7.00766 3.41716 10.1782 3.41716C14.4714 3.41716 17.9503 6.89639 17.9503 11.1882C17.9503 14.5511 16.0133 17.4652 13.2028 18.8631C16.8295 17.552 19.4183 14.0783 19.4183 10.0007C19.4183 9.03489 19.2891 8.18355 19.0047 7.22695" fill="#ED1A3B"/>
</g>
<defs>
<clipPath id="clip0_1601_44937">
<rect width="20" height="20" fill="white"/>
</clipPath>
</defs>
</svg>
