<svg width="49" height="48" viewBox="0 0 49 48" fill="none" xmlns="http://www.w3.org/2000/svg">
<path d="M48.2745 23.925C48.2745 37.14 37.4695 47.85 24.1373 47.85C10.805 47.85 0 37.14 0 23.925C0 10.71 10.805 0 24.1373 0C37.4695 0 48.2745 10.71 48.2745 23.925Z" fill="white"/>
<path d="M35.4872 22.2601C31.6434 19.6726 26.7251 20.7301 24.1449 24.6151C21.996 27.8701 18.7424 28.2751 17.4864 28.2751C13.3702 28.2751 10.5705 25.4101 9.73065 22.4476C9.73065 22.4476 9.71552 22.3876 9.70795 22.3651C9.70039 22.3351 9.69282 22.2976 9.68525 22.2676C9.35989 21.0301 9.27666 20.4376 9.27666 19.1251C9.27666 12.0376 16.6162 4.1476 27.1715 4.1476C37.7268 4.1476 44.1811 12.3076 45.7776 16.8451C45.7474 16.7626 45.7171 16.6801 45.6944 16.6051C42.6148 7.7251 34.1252 1.3501 24.1298 1.3501C11.5542 1.3501 1.35449 11.4526 1.35449 23.9251C1.35449 35.0701 9.46582 44.6101 20.7173 44.6101C29.6912 44.6101 35.7217 39.6226 38.4835 32.7526C40.0044 28.9951 38.9299 24.5776 35.4872 22.2601Z" fill="#003964"/>
<path d="M45.9065 17.2801C44.5748 12.8551 38.3399 4.14014 27.1566 4.14014C16.5937 4.14014 9.26172 12.0301 9.26172 19.1176C9.26172 20.4301 9.34495 21.0226 9.67031 22.2601C9.53411 21.7201 9.46602 21.1801 9.46602 20.6476C9.46602 13.2676 16.9191 8.16014 24.5764 8.16014C34.9501 8.16014 43.3565 16.4926 43.3565 26.7751C43.3565 34.8301 38.6804 41.8126 31.8857 45.1651C40.6477 42.0226 46.9053 33.7051 46.9053 23.9326C46.9053 21.6226 46.595 19.5826 45.9065 17.2876" fill="#ED1A3B"/>
<path d="M24.1376 46.5001C36.716 46.5001 46.9129 36.3929 46.9129 23.9251C46.9129 11.4573 36.716 1.3501 24.1376 1.3501C11.5591 1.3501 1.3623 11.4573 1.3623 23.9251C1.3623 36.3929 11.5591 46.5001 24.1376 46.5001Z" stroke="#00AEEF" stroke-width="0.25" stroke-miterlimit="10"/>
</svg>
