<svg width="20" height="20" viewBox="0 0 20 20" fill="none" xmlns="http://www.w3.org/2000/svg">
<path d="M9.38686 4.91609L10.0001 6.02984L10.6133 4.91609C10.9265 4.34709 11.3834 3.87172 11.9373 3.53764C12.4852 3.20715 13.1091 3.02639 13.7471 3.0128C14.7796 3.06338 15.7521 3.51984 16.4543 4.28547C17.1613 5.05635 17.5366 6.07796 17.4973 7.1272L17.4968 7.14032V7.15345C17.4968 8.13614 17.0978 9.21536 16.4244 10.3225C15.7554 11.4224 14.849 12.495 13.9148 13.4502C12.0849 15.321 10.2131 16.6761 10.0001 16.8284C9.77844 16.6692 7.91107 15.3161 6.08535 13.4496C5.15108 12.4945 4.24473 11.4221 3.57569 10.3223C2.90227 9.21526 2.50337 8.13613 2.50337 7.15345V7.14032L2.50288 7.1272C2.46349 6.07796 2.83886 5.05636 3.54588 4.28547C4.24807 3.51984 5.22055 3.06338 6.253 3.0128C6.89108 3.02639 7.51494 3.20715 8.06287 3.53764C8.61675 3.87172 9.07358 4.34709 9.38686 4.91609Z" stroke="#2D2D2D" stroke-width="1.4"/>
</svg>
