<svg width="40" height="40" viewBox="0 0 40 40" fill="none" xmlns="http://www.w3.org/2000/svg">
<g id="img-naver blog">
<rect x="0.500977" y="0.5" width="39.0008" height="39" rx="19.5" fill="white"/>
<rect x="0.500977" y="0.5" width="39.0008" height="39" rx="19.5" stroke="#E4E4E4"/>
<g id="Union">
<path d="M14.3661 18.642C13.9861 18.642 13.6781 18.9409 13.6781 19.3097C13.6781 19.6784 13.9861 19.9787 14.3661 19.9787C14.7462 19.9787 15.0542 19.6798 15.0542 19.3097C15.0542 18.9395 14.7462 18.642 14.3661 18.642Z" fill="black"/>
<path d="M21.1689 18.5721C20.7592 18.5721 20.4271 18.8943 20.4271 19.2918C20.4271 19.6894 20.7592 20.0116 21.1689 20.0116C21.5786 20.0116 21.9106 19.6894 21.9106 19.2918C21.9106 18.8943 21.5786 18.5721 21.1689 18.5721Z" fill="black"/>
<path d="M24.9991 19.2918C24.9991 18.9039 25.324 18.5886 25.7238 18.5886C26.1237 18.5886 26.4486 18.9039 26.4486 19.2918C26.4486 19.6798 26.1237 19.9951 25.7238 19.9951C25.324 19.9951 24.9991 19.6798 24.9991 19.2918Z" fill="black"/>
<path fill-rule="evenodd" clip-rule="evenodd" d="M12.6779 12H27.3275C28.8053 12 30.0034 13.1625 30.0034 14.5965V23.0331C30.0034 24.467 28.8053 25.6296 27.3275 25.6296H22.2003L20.4399 29.6532C20.4399 29.6532 20.3198 30.0014 20.026 30.0014C19.7335 30.0014 19.612 29.6532 19.612 29.6532L17.8516 25.6296H12.6779C11.2 25.6296 10.002 24.467 10.002 23.0331V14.5965C10.002 13.1625 11.2 12 12.6779 12ZM14.6332 21.0439C14.6332 21.0439 16.2763 21 16.2848 19.4577H16.2834C16.2834 19.4577 16.5052 17.655 14.7335 17.4946C14.7335 17.4946 13.9197 17.4864 13.6386 17.9525V16.1209C13.6386 16.1209 12.5168 16.1347 12.4419 16.1237V16.1209C12.4363 16.1223 12.4419 16.1237 12.4419 16.1237V20.9136H13.6386V20.6353C13.6386 20.6353 13.9974 21.0439 14.6332 21.0439ZM18.3913 20.9219V17.6427C18.3913 17.6427 18.5255 16.0401 16.655 15.966V17.1107C16.655 17.1107 17.2201 17.2341 17.2201 17.6756V20.9219H18.3913ZM19.2037 19.2932C19.2037 20.2611 20.0825 21.0466 21.1675 21.0466C22.2526 21.0466 23.1314 20.2611 23.1314 19.2932C23.1314 18.3254 22.2526 17.5398 21.1675 17.5398C20.0825 17.5398 19.2037 18.3254 19.2037 19.2932ZM25.8567 22.7123C27.6016 22.7123 27.5846 21.0466 27.5846 21.0466V17.5864H26.3964V17.9374C26.0079 17.4302 25.3764 17.496 25.3764 17.496C23.7756 17.6097 23.7417 19.041 23.7417 19.041V19.5647C23.7417 20.9452 25.1997 21.0466 25.1997 21.0466C26.2283 21.0466 26.371 20.6024 26.371 20.6024C26.3795 21.6992 25.6462 21.6334 25.6462 21.6334H25.3255V22.7123H25.8567Z" fill="black"/>
</g>
</g>
</svg>
