<svg width="40" height="40" viewBox="0 0 40 40" fill="none" xmlns="http://www.w3.org/2000/svg">
<g id="img-instagram" clip-path="url(#clip0_1601_43482)">
<circle id="Ellipse 3" cx="20" cy="20" r="20" fill="white"/>
<path id="Vector" d="M15.8585 10.0699C14.7945 10.1201 14.0679 10.2899 13.4327 10.5395C12.7752 10.7957 12.218 11.1395 11.6636 11.6959C11.1092 12.2523 10.7678 12.8099 10.5134 13.4683C10.2672 14.105 10.1004 14.8322 10.0534 15.8968C10.0064 16.9614 9.99602 17.3036 10.0012 20.0192C10.0064 22.7348 10.0184 23.0752 10.07 24.142C10.1208 25.2058 10.29 25.9322 10.5396 26.5676C10.7962 27.225 11.1396 27.782 11.6962 28.3366C12.2528 28.8912 12.81 29.2318 13.4701 29.4866C14.1061 29.7324 14.8335 29.9 15.8979 29.9466C16.9623 29.9932 17.3049 30.004 20.0197 29.9988C22.7345 29.9936 23.0763 29.9816 24.143 29.931C25.2096 29.8804 25.9322 29.71 26.5678 29.4616C27.2252 29.2044 27.7826 28.8616 28.3368 28.3048C28.891 27.748 29.2322 27.19 29.4864 26.5312C29.7328 25.8952 29.9002 25.1678 29.9464 24.1042C29.993 23.0368 30.004 22.696 29.9988 19.9808C29.9936 17.2656 29.9814 16.9252 29.9308 15.8588C29.8802 14.7924 29.7108 14.0682 29.4614 13.4323C29.2044 12.7749 28.8614 12.2183 28.305 11.6633C27.7486 11.1083 27.1902 10.7673 26.5316 10.5137C25.8952 10.2675 25.1682 10.0997 24.1038 10.0537C23.0393 10.0077 22.6967 9.99594 19.9809 10.0011C17.2651 10.0063 16.9251 10.0179 15.8585 10.0699ZM15.9753 28.1476C15.0003 28.1052 14.4709 27.9432 14.1181 27.8076C13.6509 27.6276 13.318 27.41 12.9664 27.0618C12.6148 26.7136 12.3988 26.3796 12.2164 25.9134C12.0794 25.5606 11.9144 25.0318 11.8688 24.0568C11.8192 23.003 11.8088 22.6866 11.803 20.0168C11.7972 17.347 11.8074 17.031 11.8536 15.9768C11.8952 15.0026 12.0582 14.4726 12.1936 14.12C12.3736 13.6522 12.5904 13.3199 12.9394 12.9685C13.2884 12.6171 13.6215 12.4007 14.0881 12.2183C14.4405 12.0807 14.9693 11.9171 15.9439 11.8707C16.9985 11.8207 17.3145 11.8107 19.9839 11.8049C22.6533 11.7991 22.9701 11.8091 24.0252 11.8555C24.9994 11.8979 25.5296 12.0593 25.8818 12.1955C26.3492 12.3755 26.6818 12.5917 27.0332 12.9413C27.3846 13.2909 27.6012 13.6228 27.7836 14.0904C27.9214 14.4418 28.085 14.9704 28.131 15.9456C28.1812 17.0002 28.1926 17.3164 28.1974 19.9856C28.2022 22.6548 28.1928 22.9718 28.1466 24.0256C28.104 25.0006 27.9424 25.5302 27.8066 25.8834C27.6266 26.3504 27.4096 26.6834 27.0604 27.0346C26.7112 27.3858 26.3786 27.6022 25.9118 27.7846C25.5598 27.922 25.0304 28.086 24.0566 28.1324C23.0019 28.182 22.6859 28.1924 20.0155 28.1982C17.3451 28.204 17.0301 28.1932 15.9755 28.1476M24.1276 14.6554C24.128 14.8927 24.1987 15.1246 24.3309 15.3217C24.4631 15.5189 24.6508 15.6724 24.8703 15.7628C25.0897 15.8533 25.3311 15.8766 25.5638 15.8299C25.7965 15.7832 26.0101 15.6685 26.1777 15.5003C26.3452 15.3322 26.4591 15.1181 26.505 14.8853C26.5508 14.6524 26.5266 14.4111 26.4354 14.192C26.3441 13.9729 26.1899 13.7858 25.9923 13.6543C25.7947 13.5228 25.5625 13.4529 25.3252 13.4533C25.007 13.454 24.7021 13.581 24.4775 13.8064C24.2529 14.0318 24.127 14.3372 24.1276 14.6554ZM14.8655 20.01C14.8711 22.846 17.1743 25.1398 20.0097 25.1344C22.8451 25.129 25.1406 22.826 25.1352 19.99C25.1298 17.154 22.8259 14.8596 19.9901 14.8652C17.1543 14.8708 14.8601 17.1744 14.8655 20.01ZM16.6667 20.0064C16.6654 19.3471 16.8596 18.7022 17.2248 18.1533C17.59 17.6044 18.1098 17.1761 18.7184 16.9226C19.327 16.6691 19.9971 16.6018 20.644 16.7291C21.2908 16.8565 21.8854 17.1728 22.3525 17.638C22.8196 18.1033 23.1383 18.6966 23.2682 19.343C23.3981 19.9894 23.3334 20.6597 23.0823 21.2693C22.8312 21.8789 22.405 22.4004 21.8576 22.7677C21.3101 23.1351 20.666 23.3319 20.0067 23.3332C19.5689 23.3341 19.1353 23.2488 18.7305 23.0821C18.3257 22.9154 17.9577 22.6706 17.6476 22.3616C17.3374 22.0527 17.0911 21.6857 16.9228 21.2816C16.7545 20.8775 16.6675 20.4441 16.6667 20.0064Z" fill="black"/>
</g>
<defs>
<clipPath id="clip0_1601_43482">
<rect width="40" height="40" fill="white"/>
</clipPath>
</defs>
</svg>
