<svg width="40" height="40" viewBox="0 0 40 40" fill="none" xmlns="http://www.w3.org/2000/svg">
<g id="img-youtube" clip-path="url(#clip0_1601_43485)">
<circle id="Ellipse 2" cx="20" cy="20" r="20" fill="white"/>
<path id="Vector" d="M29.5818 15.3419C29.3523 14.4202 28.6739 13.6944 27.8136 13.4476C26.2545 13 20 13 20 13C20 13 13.7455 13 12.1864 13.4476C11.3261 13.6944 10.6477 14.4202 10.4182 15.3419C10 17.0137 10 20.5 10 20.5C10 20.5 10 23.9863 10.4182 25.6581C10.6477 26.5798 11.3261 27.3056 12.1864 27.5524C13.7466 28 20 28 20 28C20 28 26.2545 28 27.8136 27.5524C28.6739 27.3056 29.3523 26.5798 29.5818 25.6581C30 23.9875 30 20.5 30 20.5C30 20.5 30 17.0137 29.5818 15.3419Z" fill="black"/>
<path id="Vector_2" d="M18 23L23 20.5L18 18V23Z" fill="white"/>
</g>
<defs>
<clipPath id="clip0_1601_43485">
<rect width="40" height="40" fill="white"/>
</clipPath>
</defs>
</svg>
