<svg width="199" height="48" viewBox="0 0 199 48" fill="none" xmlns="http://www.w3.org/2000/svg">
<g id="&#235;&#140;&#128;&#237;&#149;&#156;&#235;&#175;&#188;&#234;&#181;&#173;&#236;&#160;&#149;&#235;&#182;&#128;" clip-path="url(#clip0_2067_10322)">
<path id="Vector" d="M48.2745 23.925C48.2745 37.14 37.4695 47.85 24.1373 47.85C10.805 47.85 0 37.14 0 23.925C0 10.71 10.805 0 24.1373 0C37.4695 0 48.2745 10.71 48.2745 23.925Z" fill="white"/>
<path id="Vector_2" d="M35.4872 22.2601C31.6434 19.6726 26.7251 20.7301 24.1449 24.6151C21.996 27.8701 18.7424 28.2751 17.4864 28.2751C13.3702 28.2751 10.5705 25.4101 9.73065 22.4476C9.73065 22.4476 9.71552 22.3876 9.70795 22.3651C9.70039 22.3351 9.69282 22.2976 9.68525 22.2676C9.35989 21.0301 9.27666 20.4376 9.27666 19.1251C9.27666 12.0376 16.6162 4.1476 27.1715 4.1476C37.7268 4.1476 44.1811 12.3076 45.7776 16.8451C45.7474 16.7626 45.7171 16.6801 45.6944 16.6051C42.6148 7.7251 34.1252 1.3501 24.1298 1.3501C11.5542 1.3501 1.35449 11.4526 1.35449 23.9251C1.35449 35.0701 9.46582 44.6101 20.7173 44.6101C29.6912 44.6101 35.7217 39.6226 38.4835 32.7526C40.0044 28.9951 38.9299 24.5776 35.4872 22.2601Z" fill="#003964"/>
<path id="Vector_3" d="M45.9065 17.2801C44.5748 12.8551 38.3399 4.14014 27.1566 4.14014C16.5937 4.14014 9.26172 12.0301 9.26172 19.1176C9.26172 20.4301 9.34495 21.0226 9.67031 22.2601C9.53411 21.7201 9.46602 21.1801 9.46602 20.6476C9.46602 13.2676 16.9191 8.16014 24.5764 8.16014C34.9501 8.16014 43.3565 16.4926 43.3565 26.7751C43.3565 34.8301 38.6804 41.8126 31.8857 45.1651C40.6477 42.0226 46.9053 33.7051 46.9053 23.9326C46.9053 21.6226 46.595 19.5826 45.9065 17.2876" fill="#ED1A3B"/>
<path id="Vector_4" d="M62.3033 16.5748H69.0451V14.0923H59.4658V32.1748H69.325V29.7148H62.3033V16.5748Z" fill="#58595B"/>
<path id="Vector_5" d="M76.732 21.9898H73.6903V12.6973H71.042V35.1598H73.6903V24.3973H76.732V35.2873H79.4409V12.6973H76.732V21.9898Z" fill="#58595B"/>
<path id="Vector_6" d="M86.8641 27.9673H84.0342V34.8298H102.406V32.3773H86.8641V27.9673Z" fill="#58595B"/>
<path id="Vector_7" d="M101.914 12.6973H99.0762V27.1573H101.914V21.3073H105.182V18.8548H101.914V12.6973Z" fill="#58595B"/>
<path id="Vector_8" d="M96.7762 14.3927H91.3889V12.2402H88.3698V14.3927H83.0127V16.8002H96.7762V14.3927Z" fill="#58595B"/>
<path id="Vector_9" d="M91.9411 17.7523C91.298 17.4898 90.617 17.3623 89.883 17.3623C89.1491 17.3623 88.4605 17.4973 87.8249 17.7523C87.1818 18.0148 86.6294 18.3673 86.1527 18.8023C85.676 19.2373 85.2977 19.7548 85.0177 20.3473C84.7378 20.9398 84.6016 21.5698 84.6016 22.2448C84.6016 22.9198 84.7378 23.5423 85.0177 24.1198C85.2977 24.6973 85.676 25.2073 86.1527 25.6648C86.6294 26.0998 87.1893 26.4523 87.8249 26.6998C88.4605 26.9548 89.1491 27.0823 89.883 27.0823C90.617 27.0823 91.298 26.9548 91.9411 26.6998C92.5767 26.4448 93.1442 26.0998 93.6436 25.6648C94.1051 25.2073 94.4759 24.6973 94.7483 24.1198C95.0283 23.5423 95.172 22.9198 95.172 22.2448C95.172 21.5698 95.0283 20.9398 94.7483 20.3473C94.4683 19.7548 94.0976 19.2373 93.6436 18.8023C93.1518 18.3598 92.5843 18.0148 91.9411 17.7523ZM91.699 23.9848C91.2072 24.4648 90.6094 24.7048 89.9133 24.7048C89.2172 24.7048 88.6194 24.4648 88.1276 23.9848C87.6357 23.5048 87.386 22.9198 87.386 22.2223C87.386 21.5248 87.6357 20.9398 88.1276 20.4373C88.6194 19.9348 89.2172 19.6873 89.9133 19.6873C90.6094 19.6873 91.2072 19.9348 91.699 20.4373C92.1908 20.9398 92.4405 21.5323 92.4405 22.2223C92.4405 22.9123 92.1908 23.4973 91.699 23.9848Z" fill="#58595B"/>
<path id="Vector_10" d="M119.877 13.4849H108.148V24.9599H119.877V13.4849ZM117.092 22.5524H110.963V15.9149H117.092V22.5524Z" fill="#58595B"/>
<path id="Vector_11" d="M127.285 12.6973H124.447V27.1573H127.285V12.6973Z" fill="#58595B"/>
<path id="Vector_12" d="M111.622 27.2852H108.814V34.8302H127.489V32.3477H111.622V27.2852Z" fill="#58595B"/>
<path id="Vector_13" d="M147.283 19.8898H150.12V13.1548H132.543V15.6373H147.283V19.8898Z" fill="#58595B"/>
<path id="Vector_14" d="M130.855 24.1424H139.928V27.4649H132.286V29.9174H147.282V35.3399H150.12V27.4649H142.735V24.1424H151.807V21.6899H130.855V24.1424Z" fill="#58595B"/>
<path id="Vector_15" d="M171.866 17.1823H167.621V19.5898H171.866V24.6748H174.703V12.6973H171.866V17.1823Z" fill="#58595B"/>
<path id="Vector_16" d="M171.019 26.58C170.489 26.07 169.861 25.6725 169.142 25.38C168.416 25.0875 167.644 24.9375 166.827 24.9375C166.01 24.9375 165.26 25.0875 164.526 25.38C163.793 25.6725 163.164 26.0775 162.635 26.58C162.105 27.09 161.689 27.675 161.371 28.3425C161.053 29.01 160.895 29.7225 160.895 30.48C160.895 31.2375 161.053 31.95 161.371 32.6175C161.689 33.285 162.105 33.87 162.635 34.38C163.164 34.89 163.793 35.2875 164.526 35.58C165.253 35.8725 166.025 36.0225 166.827 36.0225C167.629 36.0225 168.416 35.8725 169.142 35.58C169.861 35.2875 170.489 34.8825 171.019 34.38C171.548 33.8775 171.972 33.285 172.282 32.6175C172.6 31.95 172.751 31.2375 172.751 30.48C172.751 29.7225 172.592 29.0025 172.282 28.3425C171.972 27.675 171.548 27.09 171.019 26.58ZM169.044 32.6475C168.423 33.2475 167.674 33.5475 166.804 33.5475C165.934 33.5475 165.223 33.2475 164.61 32.6475C163.997 32.0475 163.687 31.32 163.687 30.4575C163.687 29.595 163.997 28.89 164.61 28.2825C165.223 27.675 165.957 27.3675 166.804 27.3675C167.651 27.3675 168.416 27.6675 169.044 28.2825C169.664 28.89 169.974 29.6175 169.974 30.4575C169.974 31.2975 169.664 32.0475 169.044 32.6475Z" fill="#58595B"/>
<path id="Vector_17" d="M165.987 24.2248L167.954 22.5973L162.181 15.5848H167.727V13.1548H154.697V15.5848H160.403L154.614 22.9798L156.665 24.5998L161.288 18.4498L165.987 24.2248Z" fill="#58595B"/>
<path id="Vector_18" d="M177.852 26.9702V29.4452H186.894V35.2727H189.731V29.4452H198.803V26.9702H177.852Z" fill="#58595B"/>
<path id="Vector_19" d="M197.116 13.0649H194.301V15.9224H182.324V13.0649H179.539V23.9249H197.116V13.0649ZM182.324 18.3599H194.301V21.4724H182.324V18.3599Z" fill="#58595B"/>
<path id="Vector_20" d="M24.1376 46.5001C36.716 46.5001 46.9129 36.3929 46.9129 23.9251C46.9129 11.4573 36.716 1.3501 24.1376 1.3501C11.5591 1.3501 1.3623 11.4573 1.3623 23.9251C1.3623 36.3929 11.5591 46.5001 24.1376 46.5001Z" stroke="#00AEEF" stroke-width="0.25" stroke-miterlimit="10"/>
</g>
<defs>
<clipPath id="clip0_2067_10322">
<rect width="199" height="48" fill="white"/>
</clipPath>
</defs>
</svg>
