<svg width="20" height="20" viewBox="0 0 20 20" fill="none" xmlns="http://www.w3.org/2000/svg">
<path d="M12.6327 9.99935C12.6327 11.4537 11.4537 12.6327 9.99935 12.6327C8.54495 12.6327 7.36602 11.4537 7.36602 9.99935C7.36602 8.54495 8.54495 7.36602 9.99935 7.36602C11.4537 7.36602 12.6327 8.54495 12.6327 9.99935Z" stroke="#2D2D2D" stroke-width="1.4" stroke-linecap="round" stroke-linejoin="round"/>
<path d="M13.2825 15.521L13.2826 15.5211C13.2826 15.5211 13.2826 15.5211 13.2826 15.5211C13.5594 15.7694 13.9821 15.7579 14.245 15.495L15.495 14.245C15.7526 13.9874 15.7695 13.5752 15.5339 13.2973L14.8826 12.529L15.2721 11.5885L16.4262 11.2882C16.7346 11.2079 16.9499 10.9295 16.9499 10.6108L16.95 9.37504C16.95 9.05487 16.7328 8.7755 16.4225 8.69659L15.2765 8.40517L14.8879 7.46675L15.5345 6.70197C15.7695 6.42404 15.7523 6.01239 15.495 5.75503L14.245 4.50503C13.9866 4.24666 13.573 4.23047 13.2952 4.46785L12.536 5.11671L11.5621 4.71623L11.2616 3.57215C11.1808 3.26449 10.9027 3.05 10.5846 3.05H9.36312C9.04514 3.05 8.7671 3.26433 8.68617 3.57185L8.3789 4.73946L7.4504 5.13086L6.71521 4.47696C6.43821 4.23058 6.01716 4.24289 5.75503 4.50503L4.50503 5.75503C4.25138 6.00867 4.23052 6.413 4.45671 6.6914L5.10389 7.48797L4.7209 8.4296L3.59091 8.69332C3.27411 8.76725 3.05 9.04969 3.05 9.375V10.625C3.05 10.9406 3.26119 11.2172 3.56565 11.3003L4.73791 11.6203L5.13051 12.5517L4.47748 13.2842C4.23059 13.5611 4.24267 13.9826 4.50503 14.245L5.75503 15.495C6.00895 15.7489 6.41384 15.7695 6.69221 15.5426L7.4886 14.8936L8.40576 15.2709L8.69631 16.4214C8.77481 16.7322 9.05442 16.95 9.375 16.95H10.625C10.9454 16.95 11.2249 16.7325 11.3036 16.4219L11.5952 15.2706L12.5448 14.8773C12.6387 14.9564 12.7435 15.0466 12.8487 15.1381C12.9656 15.2399 13.0743 15.3358 13.1539 15.4064L13.2483 15.4905L13.274 15.5134L13.2806 15.5193L13.2822 15.5207L13.2825 15.521Z" stroke="#2D2D2D" stroke-width="1.4" stroke-linecap="round" stroke-linejoin="round"/>
</svg>
