<svg width="20" height="20" viewBox="0 0 20 20" fill="none" xmlns="http://www.w3.org/2000/svg">
<mask id="path-1-inside-1_3717_101136" fill="white">
<path fill-rule="evenodd" clip-rule="evenodd" d="M4 2C3.44772 2 3 2.44772 3 3V8.39442V17.0462C3 17.8616 3.92341 18.3342 4.58483 17.8574L10 13.9531L15.4152 17.8574C16.0766 18.3342 17 17.8616 17 17.0462V8.39442V3C17 2.44772 16.5523 2 16 2H4Z"/>
</mask>
<path d="M4.58483 17.8574L3.76607 16.7217L3.76607 16.7218L4.58483 17.8574ZM10 13.9531L10.8188 12.8175L10 12.2272L9.18124 12.8175L10 13.9531ZM15.4152 17.8574L16.2339 16.7218L16.2339 16.7217L15.4152 17.8574ZM4.4 3C4.4 3.22091 4.22091 3.4 4 3.4V0.6C2.67452 0.6 1.6 1.67452 1.6 3H4.4ZM1.6 3V8.39442H4.4V3H1.6ZM4.4 17.0462V8.39442H1.6V17.0462H4.4ZM3.76607 16.7218C4.03064 16.531 4.4 16.7201 4.4 17.0462H1.6C1.6 19.0032 3.81619 20.1375 5.40359 18.993L3.76607 16.7218ZM9.18124 12.8175L3.76607 16.7217L5.40359 18.993L10.8188 15.0887L9.18124 12.8175ZM9.18124 15.0887L14.5964 18.993L16.2339 16.7217L10.8188 12.8175L9.18124 15.0887ZM14.5964 18.993C16.1838 20.1375 18.4 19.0031 18.4 17.0462H15.6C15.6 16.7201 15.9694 16.531 16.2339 16.7218L14.5964 18.993ZM18.4 17.0462V8.39442H15.6V17.0462H18.4ZM18.4 8.39442V3H15.6V8.39442H18.4ZM16 3.4C15.7791 3.4 15.6 3.22091 15.6 3H18.4C18.4 1.67452 17.3255 0.6 16 0.6V3.4ZM16 0.6H4V3.4H16V0.6Z" fill="#2D2D2D" mask="url(#path-1-inside-1_3717_101136)"/>
</svg>
