<svg width="24" height="24" viewBox="0 0 24 24" fill="none" xmlns="http://www.w3.org/2000/svg">
<path fill-rule="evenodd" clip-rule="evenodd" d="M12 2C6.47715 2 2 6.47715 2 12C2 13.5113 2.33527 14.9443 2.93548 16.2287L2.06724 20.3995C1.99384 20.7521 2.30605 21.0643 2.65865 20.9909L6.31701 20.2293C7.93082 21.3459 9.88902 22 12 22C17.5228 22 22 17.5228 22 12C22 6.47715 17.5228 2 12 2Z" fill="#246BEB"/>
<path d="M10.8352 14.793V14.6545C10.8388 14.0117 10.8991 13.5004 11.0163 13.1204C11.1371 12.7404 11.3075 12.435 11.5277 12.2042C11.7479 11.9698 12.016 11.755 12.332 11.5597C12.5487 11.4247 12.7422 11.2773 12.9126 11.1175C13.0866 10.9542 13.2234 10.7731 13.3228 10.5742C13.4222 10.3718 13.4719 10.1463 13.4719 9.89773C13.4719 9.61719 13.4062 9.37393 13.2749 9.16797C13.1435 8.962 12.9659 8.8022 12.7422 8.68857C12.522 8.57493 12.2752 8.51811 12.0018 8.51811C11.7496 8.51811 11.5099 8.57315 11.2827 8.68324C11.0589 8.78977 10.8725 8.95312 10.7234 9.1733C10.5778 9.38991 10.4961 9.66513 10.4783 9.99893H8.58203C8.59979 9.32422 8.76314 8.75959 9.07209 8.30504C9.38459 7.8505 9.79652 7.50959 10.3079 7.28232C10.8228 7.05504 11.391 6.94141 12.0124 6.94141C12.6907 6.94141 13.2873 7.06037 13.8022 7.2983C14.3207 7.53622 14.7237 7.87536 15.0114 8.3157C15.3026 8.75249 15.4482 9.27095 15.4482 9.87109C15.4482 10.2759 15.3825 10.6381 15.2511 10.9577C15.1232 11.2773 14.9403 11.5614 14.7024 11.81C14.4645 12.0586 14.1822 12.2805 13.8555 12.4759C13.5678 12.6534 13.3317 12.8381 13.147 13.0298C12.9659 13.2216 12.831 13.4471 12.7422 13.7063C12.657 13.962 12.6126 14.2781 12.609 14.6545V14.793H10.8352ZM11.7621 18.1168C11.4425 18.1168 11.1673 18.0032 10.9364 17.7759C10.7056 17.5487 10.5902 17.2717 10.5902 16.945C10.5902 16.6254 10.7056 16.3519 10.9364 16.1246C11.1673 15.8974 11.4425 15.7837 11.7621 15.7837C12.0781 15.7837 12.3516 15.8974 12.5824 16.1246C12.8168 16.3519 12.9339 16.6254 12.9339 16.945C12.9339 17.1616 12.8789 17.3587 12.7688 17.5362C12.6623 17.7138 12.5202 17.8558 12.3427 17.9624C12.1687 18.0653 11.9751 18.1168 11.7621 18.1168Z" fill="white"/>
</svg>
