<svg width="22" height="12" viewBox="0 0 22 12" fill="none" xmlns="http://www.w3.org/2000/svg">
<g id="arrow">
<g id="Vector">
<mask id="path-1-inside-1_3048_93184" fill="white">
<path d="M0 3.64699e-06L11 12L22 0L0 3.64699e-06Z"/>
</mask>
<path d="M0 3.64699e-06L11 12L22 0L0 3.64699e-06Z" fill="white"/>
<path d="M11 12L10.2628 12.6757C10.4523 12.8824 10.7197 13 11 13C11.2803 13 11.5477 12.8824 11.7372 12.6757L11 12ZM0 3.64699e-06L-1.65772e-07 -0.999996L-2.27324 -0.999996L-0.737154 0.675728L0 3.64699e-06ZM22 0L22.7372 0.675725L24.2732 -1L22 -1V0ZM11.7372 11.3243L0.737154 -0.675721L-0.737154 0.675728L10.2628 12.6757L11.7372 11.3243ZM21.2628 -0.675725L10.2628 11.3243L11.7372 12.6757L22.7372 0.675725L21.2628 -0.675725ZM1.65772e-07 1L22 1V-1L-1.65772e-07 -0.999996L1.65772e-07 1Z" fill="#C6C6C6" mask="url(#path-1-inside-1_3048_93184)"/>
</g>
<rect id="white" x="1" width="20" height="1" fill="white"/>
<path id="gray" d="M21.7266 0H20.5625L19.7266 1H21.7266V0Z" fill="#C6C6C6"/>
<path id="gray_2" d="M0.273438 0H1.4375L2.27344 1H0.273438V0Z" fill="#C6C6C6"/>
</g>
</svg>
