<svg width="24" height="24" viewBox="0 0 24 24" fill="none" xmlns="http://www.w3.org/2000/svg">
<path fill-rule="evenodd" clip-rule="evenodd" d="M18.1332 16.72C18.4957 16.5246 18.8389 16.3177 19.1604 16.1034C20.0753 15.4936 20.8363 14.8099 21.3776 14.1324C21.8973 13.4822 22.2992 12.7312 22.2992 12.0002C22.2992 11.2692 21.8973 10.5182 21.3776 9.86796C20.8363 9.19053 20.0753 8.50678 19.1604 7.89701C17.3317 6.67814 14.8048 5.7002 11.9992 5.7002C10.51 5.7002 9.09928 5.97574 7.82984 6.4166L9.10789 7.69465C10.0156 7.44676 10.9887 7.3002 11.9992 7.3002C14.4403 7.3002 16.6635 8.15559 18.273 9.22838C19.0773 9.76444 19.7076 10.3411 20.1277 10.8668C20.5695 11.4197 20.6992 11.8146 20.6992 12.0002C20.6992 12.1858 20.5695 12.5807 20.1277 13.1336C19.7076 13.6593 19.0773 14.2359 18.273 14.772C17.8672 15.0425 17.4224 15.2991 16.945 15.5317L18.1332 16.72ZM15.8537 14.4405C16.3243 13.742 16.5992 12.9054 16.5992 12.0002C16.5992 9.50663 14.5126 7.53353 11.9992 7.53353C11.1251 7.53353 10.3027 7.77218 9.6016 8.18837L10.7888 9.37553C11.1571 9.22023 11.566 9.13353 11.9992 9.13353C13.6832 9.13353 14.9992 10.4437 14.9992 12.0002C14.9992 12.4544 14.8872 12.8876 14.6866 13.2734L15.8537 14.4405ZM13.2097 14.6249L14.3968 15.812C13.6958 16.2282 12.8733 16.4669 11.9992 16.4669C9.48588 16.4669 7.39922 14.4938 7.39922 12.0002C7.39922 11.095 7.67418 10.2584 8.14471 9.5599L9.31181 10.727C9.11127 11.1128 8.99922 11.546 8.99922 12.0002C8.99922 13.5567 10.3152 14.8669 11.9992 14.8669C12.4324 14.8669 12.8413 14.7802 13.2097 14.6249ZM7.05346 8.46865C6.576 8.70126 6.13119 8.95791 5.72539 9.22838C4.92111 9.76444 4.29084 10.3411 3.87074 10.8668C3.42893 11.4197 3.29922 11.8146 3.29922 12.0002C3.29922 12.1858 3.42893 12.5807 3.87074 13.1336C4.29084 13.6593 4.92111 14.2359 5.72539 14.772C7.33497 15.8448 9.5581 16.7002 11.9992 16.7002C13.0097 16.7002 13.9828 16.5536 14.8905 16.3057L16.1686 17.5838C14.8992 18.0247 13.4885 18.3002 11.9992 18.3002C9.19363 18.3002 6.66676 17.3223 4.83802 16.1034C3.92314 15.4936 3.16216 14.8099 2.62082 14.1324C2.10117 13.4822 1.69922 12.7312 1.69922 12.0002C1.69922 11.2692 2.10117 10.5182 2.62082 9.86796C3.16216 9.19053 3.92314 8.50678 4.83802 7.89701C5.15958 7.68268 5.50274 7.4758 5.86519 7.28038L7.05346 8.46865Z" fill="#2D2D2D"/>
<path d="M4 4L20 20" stroke="#2D2D2D" stroke-width="1.6"/>
</svg>
