<svg width="16" height="16" viewBox="0 0 16 16" fill="none" xmlns="http://www.w3.org/2000/svg">
<path d="M13.5475 10.3855C13.5325 10.37 12.3269 9.4423 12.3269 9.4423C12.0375 9.16673 11.6531 9.01333 11.2536 9.01398C10.854 9.01463 10.4701 9.1693 10.1816 9.4458L9.22999 10.2503C8.45018 9.92801 7.74176 9.45477 7.14547 8.85774C6.54918 8.26072 6.07679 7.5517 5.75546 6.77145L6.55685 5.81972C6.83276 5.5312 6.98696 5.1475 6.98742 4.74828C6.98789 4.34905 6.83459 3.96499 6.55936 3.67583C6.55936 3.67583 5.63275 2.47214 5.61672 2.45661C5.33112 2.16851 4.94355 2.0045 4.53792 2.00009C4.13229 1.99568 3.74124 2.15124 3.44946 2.43307L2.87396 2.93398C-0.993255 7.04595 8.98457 17.0291 13.0917 13.1024L13.5485 12.5765C13.8379 12.2854 14.0002 11.8915 14 11.481C13.9998 11.0706 13.8371 10.6764 13.5475 10.3855Z" stroke="#555555"/>
</svg>
