<svg width="24" height="24" viewBox="0 0 24 24" fill="none" xmlns="http://www.w3.org/2000/svg">
<path d="M2.8 8.8H21.2V20C21.2 20.6627 20.6627 21.2 20 21.2H4C3.33726 21.2 2.8 20.6627 2.8 20V8.8Z" stroke="#2D2D2D" stroke-width="1.6"/>
<rect x="6.6001" y="14" width="2" height="2" rx="1" fill="#2D2D2D"/>
<rect x="11" y="14" width="2" height="2" rx="1" fill="#2D2D2D"/>
<rect x="15.3999" y="14" width="2" height="2" rx="1" fill="#2D2D2D"/>
<rect x="7.4" y="2.4" width="0.8" height="1.7" rx="0.4" stroke="#2D2D2D" stroke-width="0.8"/>
<rect x="15.8004" y="2.4" width="0.8" height="1.7" rx="0.4" stroke="#2D2D2D" stroke-width="0.8"/>
<mask id="path-7-inside-1_2116_2179" fill="white">
<path d="M2 5.59375C2 4.48918 2.89543 3.59375 4 3.59375H20C21.1046 3.59375 22 4.48918 22 5.59375V9.59375H2V5.59375Z"/>
</mask>
<path d="M0.4 5.59375C0.4 3.60552 2.01177 1.99375 4 1.99375H20C21.9882 1.99375 23.6 3.60552 23.6 5.59375L20.4 5.59375C20.4 5.37284 20.2209 5.19375 20 5.19375H4C3.77909 5.19375 3.6 5.37284 3.6 5.59375L0.4 5.59375ZM22 9.59375H2H22ZM0.4 9.59375V5.59375C0.4 3.60552 2.01177 1.99375 4 1.99375L4 5.19375C3.77909 5.19375 3.6 5.37284 3.6 5.59375V9.59375H0.4ZM20 1.99375C21.9882 1.99375 23.6 3.60552 23.6 5.59375V9.59375H20.4V5.59375C20.4 5.37284 20.2209 5.19375 20 5.19375V1.99375Z" fill="#2D2D2D" mask="url(#path-7-inside-1_2116_2179)"/>
</svg>
